<svg width="512" height="512" xmlns="http://www.w3.org/2000/svg" xmlns:xlink="http://www.w3.org/1999/xlink" overflow="hidden"><defs><filter id="fx0" x="-10%" y="-10%" width="120%" height="120%" filterUnits="userSpaceOnUse" primitiveUnits="userSpaceOnUse"><feComponentTransfer color-interpolation-filters="sRGB"><feFuncR type="discrete" tableValues="0 0"/><feFuncG type="discrete" tableValues="0 0"/><feFuncB type="discrete" tableValues="0 0"/><feFuncA type="linear" slope="0.4" intercept="0"/></feComponentTransfer><feGaussianBlur stdDeviation="1.9141 1.9141"/></filter><filter id="fx1" x="-10%" y="-10%" width="120%" height="120%" filterUnits="userSpaceOnUse" primitiveUnits="userSpaceOnUse"><feComponentTransfer color-interpolation-filters="sRGB"><feFuncR type="discrete" tableValues="0 0"/><feFuncG type="discrete" tableValues="0 0"/><feFuncB type="discrete" tableValues="0 0"/><feFuncA type="linear" slope="0.4" intercept="0"/></feComponentTransfer><feGaussianBlur stdDeviation="1.9141 1.9141"/></filter><clipPath id="clip2"><rect x="0" y="0" width="512" height="512"/></clipPath><clipPath id="clip3"><rect x="45" y="83" width="451" height="141"/></clipPath><clipPath id="clip4"><rect x="89" y="100" width="358" height="141"/></clipPath></defs><g clip-path="url(#clip2)"><rect x="0" y="0" width="512" height="512" fill="#FFFFFF"/><g clip-path="url(#clip3)" filter="url(#fx0)" transform="translate(-6 -6)"><g><path d="M90.5884-32.7886C90.5884-29.1945 90.1318-25.8803 89.2185-22.8459 88.3053-19.8116 87.0238-17.0866 85.374-14.6709 83.7243-12.2552 81.7358-10.1341 79.4084-8.30762 77.0811-6.48112 74.4592-4.94922 71.5427-3.71191 68.6262-2.47461 65.5035-1.54663 62.1746-0.927979 58.8456-0.309326 55.0306 0 50.7295 0L20.8574 0C19.5023 0 18.2208-0.456624 17.0129-1.36987 15.8051-2.28312 15.2012-3.88867 15.2012-6.18652L15.2012-108.176C15.2012-110.474 15.8051-112.079 17.0129-112.992 18.2208-113.906 19.5023-114.362 20.8574-114.362L46.8408-114.362C53.6755-114.362 59.2728-113.714 63.6328-112.418 67.9928-111.122 71.6311-109.236 74.5476-106.762 77.4641-104.287 79.6589-101.253 81.1318-97.6587 82.6048-94.0646 83.3413-89.9992 83.3413-85.4624 83.3413-82.7521 83.0173-80.1597 82.3691-77.6851 81.721-75.2104 80.7636-72.9273 79.4968-70.8357 78.2301-68.7441 76.6392-66.8734 74.7244-65.2236 72.8095-63.5739 70.6147-62.2188 68.1401-61.1582 71.2629-60.569 74.1794-59.4937 76.8896-57.9324 79.5999-56.371 81.9714-54.3825 84.0042-51.9668 86.0369-49.5511 87.6424-46.723 88.8208-43.4824 89.9992-40.2419 90.5884-36.6772 90.5884-32.7886ZM67.6982-83.96C67.6982-86.7292 67.3162-89.2332 66.5521-91.4722 65.788-93.7111 64.5829-95.6112 62.9368-97.1726 61.2908-98.734 59.1453-99.9271 56.5004-100.752 53.8554-101.577 50.358-101.989 46.0081-101.989L30.314-101.989 30.314-64.9585 47.5948-64.9585C51.5332-64.9585 54.7075-65.474 57.1176-66.5051 59.5278-67.5362 61.5264-68.9208 63.1136-70.6589 64.7007-72.397 65.8616-74.4298 66.5963-76.7571 67.3309-79.0844 67.6982-81.4854 67.6982-83.96ZM74.5918-31.9048C74.5918-35.3221 74.0479-38.327 72.9602-40.9194 71.8725-43.5119 70.2849-45.6919 68.1974-47.4595 66.11-49.227 63.4931-50.5675 60.3469-51.4807 57.2007-52.394 53.2464-52.8506 48.4841-52.8506L30.314-52.8506 30.314-12.5498 52.3645-12.5498C55.8343-12.5498 58.8627-12.9622 61.4496-13.7871 64.0365-14.612 66.315-15.8346 68.2851-17.4548 70.2552-19.0751 71.7989-21.0931 72.916-23.5088 74.0332-25.9245 74.5918-28.7231 74.5918-31.9048ZM126.271-2.20947C126.271-1.73812 126.153-1.34041 125.918-1.01636 125.682-0.692301 125.299-0.412435 124.769-0.176758 124.238 0.0589193 123.502 0.235677 122.559 0.353516 121.617 0.471354 120.409 0.530273 118.936 0.530273 117.522 0.530273 116.343 0.471354 115.401 0.353516 114.458 0.235677 113.707 0.0589193 113.147-0.176758 112.587-0.412435 112.204-0.692301 111.998-1.01636 111.792-1.34041 111.689-1.73812 111.689-2.20947L111.689-120.284C111.689-120.755 111.792-121.167 111.998-121.521 112.204-121.875 112.587-122.169 113.147-122.405 113.707-122.64 114.458-122.817 115.401-122.935 116.343-123.053 117.522-123.112 118.936-123.112 120.409-123.112 121.617-123.053 122.559-122.935 123.502-122.817 124.238-122.64 124.769-122.405 125.299-122.169 125.682-121.875 125.918-121.521 126.153-121.167 126.271-120.755 126.271-120.284ZM213.11-2.12109C213.11-1.41406 212.874-0.883789 212.403-0.530273 211.931-0.176758 211.283 0.0883789 210.458 0.265137 209.633 0.441895 208.425 0.530273 206.835 0.530273 205.303 0.530273 204.08 0.441895 203.167 0.265137 202.254 0.0883789 201.591-0.176758 201.178-0.530273 200.766-0.883789 200.56-1.41406 200.56-2.12109L200.56-10.0752C197.083-6.36328 193.21-3.47624 188.938-1.41406 184.666 0.648112 180.144 1.6792 175.372 1.6792 171.188 1.6792 167.403 1.1342 164.015 0.0441895 160.627-1.04582 157.74-2.62191 155.354-4.68408 152.968-6.74626 151.112-9.27979 149.786-12.2847 148.46-15.2896 147.798-18.7069 147.798-22.5366 147.798-27.0145 148.711-30.9032 150.537-34.2026 152.364-37.5021 154.986-40.2419 158.403-42.4219 161.82-44.6019 166.004-46.2369 170.953-47.3269 175.902-48.4169 181.47-48.9619 187.656-48.9619L198.615-48.9619 198.615-55.1484C198.615-58.2122 198.291-60.9225 197.643-63.2793 196.995-65.6361 195.949-67.5951 194.506-69.1565 193.062-70.7178 191.192-71.8962 188.894-72.6917 186.596-73.4871 183.768-73.8848 180.409-73.8848 176.815-73.8848 173.589-73.4576 170.732-72.6033 167.874-71.7489 165.37-70.8062 163.22-69.7751 161.069-68.7441 159.272-67.8013 157.829-66.947 156.385-66.0927 155.31-65.6655 154.603-65.6655 154.131-65.6655 153.719-65.7834 153.365-66.019 153.012-66.2547 152.703-66.6082 152.437-67.0796 152.172-67.5509 151.981-68.1549 151.863-68.8914 151.745-69.6278 151.686-70.438 151.686-71.3218 151.686-72.7948 151.789-73.9584 151.996-74.8127 152.202-75.6671 152.703-76.4772 153.498-77.2432 154.293-78.0091 155.663-78.9076 157.608-79.9387 159.552-80.9698 161.791-81.9125 164.324-82.7668 166.858-83.6212 169.627-84.3282 172.632-84.8879 175.637-85.4477 178.671-85.7275 181.735-85.7275 187.45-85.7275 192.311-85.0794 196.318-83.7832 200.324-82.487 203.565-80.5868 206.039-78.0828 208.514-75.5787 210.311-72.4707 211.43-68.7588 212.55-65.0469 213.11-60.7163 213.11-55.7671ZM198.615-38.4448 186.154-38.4448C182.147-38.4448 178.671-38.106 175.725-37.4285 172.779-36.7509 170.334-35.7493 168.39-34.4236 166.445-33.0979 165.017-31.5071 164.103-29.6511 163.19-27.7952 162.734-25.6593 162.734-23.2437 162.734-19.1193 164.045-15.8346 166.666-13.3894 169.288-10.9443 172.956-9.72168 177.67-9.72168 181.499-9.72168 185.049-10.6938 188.319-12.6382 191.589-14.5825 195.021-17.5579 198.615-21.5645ZM290.418-6.18652C290.418-5.06706 290.33-4.10962 290.153-3.31421 289.976-2.5188 289.77-1.87069 289.534-1.36987 289.299-0.869059 288.975-0.515544 288.562-0.309326 288.15-0.103109 287.708 0 287.237 0L238.275 0C237.037 0 236.021-0.412435 235.226-1.2373 234.43-2.06217 234.032-3.44678 234.032-5.39111L234.032-8.396C234.032-9.22087 234.091-9.95736 234.209-10.6055 234.327-11.2536 234.504-11.9017 234.739-12.5498 234.975-13.1979 235.299-13.8902 235.712-14.6267 236.124-15.3632 236.625-16.2028 237.214-17.1455L272.3-71.7637 238.275-71.7637C237.332-71.7637 236.581-72.2498 236.021-73.2219 235.461-74.1941 235.181-75.7702 235.181-77.9502 235.181-79.0107 235.24-79.9387 235.358-80.7341 235.476-81.5295 235.667-82.1777 235.933-82.6785 236.198-83.1793 236.522-83.5328 236.905-83.739 237.288-83.9452 237.744-84.0483 238.275-84.0483L283.878-84.0483C284.526-84.0483 285.101-83.96 285.602-83.7832 286.102-83.6064 286.529-83.3118 286.883-82.8994 287.237-82.487 287.516-81.9567 287.723-81.3086 287.929-80.6605 288.032-79.8356 288.032-78.834L288.032-76.0059C288.032-75.181 287.973-74.415 287.855-73.708 287.737-73.001 287.561-72.3087 287.325-71.6311 287.089-70.9535 286.765-70.2318 286.353-69.4658 285.94-68.6999 285.439-67.8455 284.85-66.9028L249.941-12.2847 287.237-12.2847C287.708-12.2847 288.135-12.1816 288.518-11.9753 288.901-11.7691 289.225-11.4303 289.49-10.959 289.755-10.4876 289.976-9.85425 290.153-9.05884 290.33-8.26343 290.418-7.30599 290.418-6.18652ZM381.028-42.8638C381.028-36.3826 380.174-30.4171 378.465-24.967 376.757-19.517 374.209-14.8182 370.821-10.8706 367.433-6.92301 363.191-3.84448 358.094-1.63501 352.998 0.574463 347.091 1.6792 340.374 1.6792 333.834 1.6792 328.134 0.707031 323.273-1.2373 318.412-3.18164 314.361-6.00977 311.121-9.72168 307.88-13.4336 305.464-17.9409 303.874-23.2437 302.283-28.5464 301.487-34.5562 301.487-41.2729 301.487-47.7541 302.327-53.7196 304.006-59.1697 305.685-64.6197 308.219-69.3185 311.607-73.2661 314.995-77.2137 319.222-80.2775 324.289-82.4575 329.356-84.6375 335.278-85.7275 342.053-85.7275 348.593-85.7275 354.294-84.7554 359.155-82.811 364.016-80.8667 368.066-78.0386 371.307-74.3267 374.547-70.6147 376.978-66.1074 378.598-60.8047 380.218-55.502 381.028-49.5216 381.028-42.8638ZM365.916-41.8916C365.916-46.1927 365.514-50.2581 364.711-54.0879 363.909-57.9176 362.586-61.276 360.743-64.1631 358.9-67.0501 356.403-69.3333 353.252-71.0125 350.101-72.6917 346.177-73.5312 341.48-73.5312 337.14-73.5312 333.41-72.7653 330.289-71.2334 327.167-69.7015 324.596-67.5362 322.575-64.7375 320.554-61.9389 319.052-58.6247 318.072-54.7949 317.091-50.9652 316.6-46.7819 316.6-42.2451 316.6-37.8851 317.002-33.7902 317.804-29.9604 318.607-26.1307 319.945-22.787 321.817-19.9294 323.69-17.0719 326.202-14.8035 329.352-13.1243 332.503-11.4451 336.427-10.6055 341.124-10.6055 345.405-10.6055 349.121-11.3714 352.271-12.9033 355.422-14.4352 358.008-16.5858 360.029-19.355 362.051-22.1242 363.537-25.4237 364.488-29.2534 365.44-33.0832 365.916-37.2959 365.916-41.8916ZM448.709-76.5361C448.709-75.2399 448.68-74.1499 448.621-73.2661 448.562-72.3823 448.444-71.69 448.267-71.1892 448.091-70.6884 447.87-70.3054 447.605-70.0403 447.339-69.7751 446.971-69.6426 446.5-69.6426 446.028-69.6426 445.454-69.7751 444.776-70.0403 444.099-70.3054 443.333-70.5706 442.479-70.8357 441.624-71.1008 440.667-71.3512 439.606-71.5869 438.546-71.8226 437.397-71.9404 436.159-71.9404 434.686-71.9404 433.243-71.6458 431.829-71.0566 430.415-70.4674 428.927-69.4953 427.366-68.1401 425.804-66.785 424.169-64.988 422.461-62.749 420.752-60.5101 418.867-57.7703 416.805-54.5298L416.805-2.20947C416.805-1.73812 416.687-1.34041 416.451-1.01636 416.215-0.692301 415.832-0.412435 415.302-0.176758 414.772 0.0589193 414.035 0.235677 413.093 0.353516 412.15 0.471354 410.942 0.530273 409.469 0.530273 408.055 0.530273 406.877 0.471354 405.934 0.353516 404.991 0.235677 404.24 0.0589193 403.68-0.176758 403.12-0.412435 402.737-0.692301 402.531-1.01636 402.325-1.34041 402.222-1.73812 402.222-2.20947L402.222-81.7505C402.222-82.2218 402.31-82.6195 402.487-82.9436 402.664-83.2677 403.017-83.5623 403.548-83.8274 404.078-84.0925 404.755-84.2693 405.58-84.3577 406.405-84.446 407.495-84.4902 408.85-84.4902 410.147-84.4902 411.222-84.446 412.076-84.3577 412.931-84.2693 413.593-84.0925 414.065-83.8274 414.536-83.5623 414.875-83.2677 415.081-82.9436 415.287-82.6195 415.39-82.2218 415.39-81.7505L415.39-70.1729C417.57-73.3545 419.618-75.9469 421.533-77.9502 423.448-79.9534 425.259-81.5295 426.968-82.6785 428.677-83.8274 430.371-84.6228 432.05-85.0647 433.729-85.5066 435.423-85.7275 437.132-85.7275 437.898-85.7275 438.767-85.6833 439.739-85.595 440.711-85.5066 441.727-85.3446 442.788-85.1089 443.848-84.8732 444.806-84.6081 445.66-84.3135 446.515-84.0189 447.118-83.7243 447.472-83.4297 447.826-83.1351 448.061-82.8552 448.179-82.5901 448.297-82.325 448.4-81.9862 448.488-81.5737 448.577-81.1613 448.636-80.5574 448.665-79.762 448.695-78.9666 448.709-77.8913 448.709-76.5361Z" fill="#FF0000" transform="translate(38.1117 214)"/></g></g><text fill="#FF0000" font-family="Calibri,Calibri_MSFontService,sans-serif" font-weight="400" font-size="181" transform="translate(30.15 206)">Blazor</text><g clip-path="url(#clip4)" filter="url(#fx1)" transform="translate(-6 194)"><g><path d="M74.5034-6.62842C74.5034-5.45003 74.4445-4.46313 74.3267-3.66772 74.2088-2.87231 74.0173-2.19474 73.7522-1.63501 73.4871-1.07528 73.163-0.662842 72.78-0.397705 72.397-0.132568 71.9404 0 71.4102 0L20.8574 0C19.5023 0 18.2208-0.456624 17.0129-1.36987 15.8051-2.28312 15.2012-3.88867 15.2012-6.18652L15.2012-112.064C15.2012-112.536 15.319-112.948 15.5547-113.302 15.7904-113.655 16.2028-113.935 16.792-114.141 17.3812-114.348 18.1766-114.524 19.1782-114.672 20.1798-114.819 21.3877-114.893 22.8018-114.893 24.2747-114.893 25.4973-114.819 26.4695-114.672 27.4417-114.524 28.2223-114.348 28.8115-114.141 29.4007-113.935 29.8131-113.655 30.0488-113.302 30.2845-112.948 30.4023-112.536 30.4023-112.064L30.4023-13.1685 71.4102-13.1685C71.9404-13.1685 72.397-13.0359 72.78-12.7708 73.163-12.5056 73.4871-12.1226 73.7522-11.6218 74.0173-11.121 74.2088-10.4582 74.3267-9.6333 74.4445-8.80843 74.5034-7.8068 74.5034-6.62842ZM104.104-2.20947C104.104-1.73812 103.987-1.34041 103.751-1.01636 103.515-0.692301 103.132-0.412435 102.602-0.176758 102.072 0.0589193 101.335 0.235677 100.393 0.353516 99.4499 0.471354 98.242 0.530273 96.769 0.530273 95.355 0.530273 94.1766 0.471354 93.2339 0.353516 92.2912 0.235677 91.54 0.0589193 90.9802-0.176758 90.4205-0.412435 90.0375-0.692301 89.8313-1.01636 89.6251-1.34041 89.522-1.73812 89.522-2.20947L89.522-81.7505C89.522-82.1629 89.6251-82.5459 89.8313-82.8994 90.0375-83.2529 90.4205-83.5475 90.9802-83.7832 91.54-84.0189 92.2912-84.1956 93.2339-84.3135 94.1766-84.4313 95.355-84.4902 96.769-84.4902 98.242-84.4902 99.4499-84.4313 100.393-84.3135 101.335-84.1956 102.072-84.0189 102.602-83.7832 103.132-83.5475 103.515-83.2529 103.751-82.8994 103.987-82.5459 104.104-82.1629 104.104-81.7505ZM105.784-108.618C105.784-105.2 105.136-102.873 103.839-101.636 102.543-100.398 100.157-99.7798 96.6807-99.7798 93.2633-99.7798 90.9213-100.384 89.6545-101.592 88.3878-102.799 87.7544-105.083 87.7544-108.441 87.7544-111.858 88.4025-114.186 89.6987-115.423 90.9949-116.66 93.3812-117.279 96.8574-117.279 100.275-117.279 102.617-116.675 103.884-115.467 105.15-114.259 105.784-111.976 105.784-108.618ZM199.516-2.20947C199.516-1.73812 199.398-1.34041 199.162-1.01636 198.926-0.692301 198.543-0.412435 198.013-0.176758 197.483 0.0589193 196.746 0.235677 195.804 0.353516 194.861 0.471354 193.683 0.530273 192.269 0.530273 190.796 0.530273 189.588 0.471354 188.645 0.353516 187.702 0.235677 186.966 0.0589193 186.436-0.176758 185.905-0.412435 185.522-0.692301 185.287-1.01636 185.051-1.34041 184.933-1.73812 184.933-2.20947L184.933-48.7852C184.933-53.3219 184.58-56.9749 183.873-59.7441 183.166-62.5133 182.134-64.8996 180.779-66.9028 179.424-68.9061 177.671-70.438 175.521-71.4985 173.37-72.5591 170.881-73.0894 168.053-73.0894 164.4-73.0894 160.747-71.7931 157.094-69.2007 153.441-66.6082 149.611-62.8079 145.604-57.7998L145.604-2.20947C145.604-1.73812 145.487-1.34041 145.251-1.01636 145.015-0.692301 144.632-0.412435 144.102-0.176758 143.572 0.0589193 142.835 0.235677 141.893 0.353516 140.95 0.471354 139.742 0.530273 138.269 0.530273 136.855 0.530273 135.677 0.471354 134.734 0.353516 133.791 0.235677 133.04 0.0589193 132.48-0.176758 131.92-0.412435 131.538-0.692301 131.331-1.01636 131.125-1.34041 131.022-1.73812 131.022-2.20947L131.022-81.7505C131.022-82.2218 131.11-82.6195 131.287-82.9436 131.464-83.2677 131.817-83.5623 132.348-83.8274 132.878-84.0925 133.555-84.2693 134.38-84.3577 135.205-84.446 136.295-84.4902 137.65-84.4902 138.947-84.4902 140.022-84.446 140.876-84.3577 141.731-84.2693 142.393-84.0925 142.865-83.8274 143.336-83.5623 143.675-83.2677 143.881-82.9436 144.087-82.6195 144.19-82.2218 144.19-81.7505L144.19-71.2334C148.668-76.2415 153.131-79.9093 157.58-82.2366 162.028-84.5639 166.521-85.7275 171.058-85.7275 176.36-85.7275 180.823-84.829 184.447-83.032 188.071-81.2349 191.002-78.834 193.241-75.8291 195.48-72.8242 197.085-69.3038 198.057-65.2678 199.03-61.2318 199.516-56.3857 199.516-50.7295ZM291.167-2.29785C291.167-1.8265 291.049-1.41406 290.814-1.06055 290.578-0.707031 290.18-0.412435 289.621-0.176758 289.061 0.0589193 288.28 0.235677 287.279 0.353516 286.277 0.471354 285.01 0.530273 283.478 0.530273 281.888 0.530273 280.577 0.486084 279.546 0.397705 278.514 0.309326 277.645 0.162028 276.938-0.0441895 276.231-0.250407 275.657-0.545003 275.215-0.927979 274.773-1.31095 274.375-1.76758 274.022-2.29785L240.438-46.3105 240.438-2.20947C240.438-1.73812 240.32-1.34041 240.084-1.01636 239.849-0.692301 239.466-0.412435 238.935-0.176758 238.405 0.0589193 237.669 0.235677 236.726 0.353516 235.783 0.471354 234.575 0.530273 233.102 0.530273 231.688 0.530273 230.51 0.471354 229.567 0.353516 228.625 0.235677 227.873 0.0589193 227.314-0.176758 226.754-0.412435 226.371-0.692301 226.165-1.01636 225.958-1.34041 225.855-1.73812 225.855-2.20947L225.855-120.284C225.855-120.755 225.958-121.167 226.165-121.521 226.371-121.875 226.754-122.169 227.314-122.405 227.873-122.64 228.625-122.817 229.567-122.935 230.51-123.053 231.688-123.112 233.102-123.112 234.575-123.112 235.783-123.053 236.726-122.935 237.669-122.817 238.405-122.64 238.935-122.405 239.466-122.169 239.849-121.875 240.084-121.521 240.32-121.167 240.438-120.755 240.438-120.284L240.438-48.3433 270.487-81.397C270.958-81.9862 271.459-82.4722 271.989-82.8552 272.519-83.2382 273.153-83.5623 273.889-83.8274 274.626-84.0925 275.495-84.2693 276.496-84.3577 277.498-84.446 278.706-84.4902 280.12-84.4902 281.593-84.4902 282.83-84.446 283.832-84.3577 284.833-84.2693 285.644-84.122 286.262-83.9158 286.881-83.7095 287.323-83.4444 287.588-83.1204 287.853-82.7963 287.986-82.3691 287.986-81.8389 287.986-81.1318 287.794-80.4248 287.411-79.7178 287.028-79.0107 286.395-78.1859 285.511-77.2432L256.7-48.4316 289.046-6.45166C289.812-5.45003 290.357-4.63989 290.681-4.02124 291.005-3.40259 291.167-2.82812 291.167-2.29785ZM356.283-23.8623C356.283-19.7969 355.531-16.1733 354.029-12.9917 352.527-9.81006 350.391-7.12923 347.622-4.94922 344.852-2.76921 341.553-1.11947 337.723 0 333.893 1.11947 329.681 1.6792 325.085 1.6792 322.257 1.6792 319.561 1.45825 316.998 1.01636 314.435 0.574463 312.137 0.0147298 310.105-0.662842 308.072-1.34041 306.349-2.04744 304.935-2.78394 303.521-3.52043 302.489-4.18327 301.841-4.77246 301.193-5.36165 300.722-6.18652 300.427-7.24707 300.133-8.30762 299.985-9.75114 299.985-11.5776 299.985-12.6971 300.044-13.6398 300.162-14.4058 300.28-15.1717 300.427-15.7904 300.604-16.2617 300.781-16.7331 301.031-17.0719 301.355-17.2781 301.679-17.4843 302.048-17.5874 302.46-17.5874 303.108-17.5874 304.065-17.1897 305.332-16.3943 306.599-15.5989 308.16-14.7298 310.016-13.7871 311.872-12.8444 314.067-11.9753 316.601-11.1799 319.134-10.3845 322.051-9.98682 325.35-9.98682 327.825-9.98682 330.064-10.252 332.067-10.7822 334.07-11.3125 335.808-12.0932 337.281-13.1243 338.754-14.1554 339.888-15.4663 340.684-17.0571 341.479-18.6479 341.877-20.5334 341.877-22.7134 341.877-24.9523 341.302-26.8377 340.154-28.3696 339.005-29.9015 337.487-31.2567 335.602-32.4351 333.717-33.6134 331.596-34.6593 329.239-35.5725 326.882-36.4858 324.452-37.4432 321.948-38.4448 319.443-39.4464 316.998-40.5806 314.612-41.8474 312.226-43.1142 310.09-44.6608 308.205-46.4873 306.319-48.3138 304.802-50.4938 303.653-53.0273 302.504-55.5609 301.93-58.5952 301.93-62.1304 301.93-65.2531 302.534-68.2432 303.741-71.1008 304.949-73.9584 306.761-76.4625 309.177-78.613 311.592-80.7636 314.612-82.487 318.236-83.7832 321.859-85.0794 326.087-85.7275 330.918-85.7275 333.039-85.7275 335.16-85.5508 337.281-85.1973 339.402-84.8438 341.317-84.4019 343.026-83.8716 344.735-83.3413 346.193-82.7668 347.401-82.1482 348.608-81.5295 349.522-80.9845 350.14-80.5132 350.759-80.0418 351.171-79.6294 351.378-79.2759 351.584-78.9224 351.731-78.5247 351.82-78.0828 351.908-77.6409 351.996-77.0959 352.085-76.4478 352.173-75.7996 352.217-75.0042 352.217-74.0615 352.217-73.0599 352.173-72.1908 352.085-71.4543 351.996-70.7178 351.849-70.1139 351.643-69.6426 351.437-69.1712 351.186-68.8324 350.892-68.6262 350.597-68.42 350.273-68.3169 349.919-68.3169 349.389-68.3169 348.623-68.6409 347.622-69.2891 346.62-69.9372 345.324-70.6295 343.733-71.366 342.142-72.1025 340.271-72.7948 338.121-73.4429 335.97-74.091 333.51-74.415 330.741-74.415 328.267-74.415 326.087-74.1352 324.201-73.5754 322.316-73.0157 320.769-72.2203 319.561-71.1892 318.353-70.1581 317.44-68.9355 316.822-67.5215 316.203-66.1074 315.894-64.5755 315.894-62.9258 315.894-60.6279 316.483-58.6983 317.661-57.137 318.84-55.5756 320.371-54.2057 322.257-53.0273 324.142-51.849 326.293-50.7884 328.708-49.8457 331.124-48.903 333.584-47.9308 336.088-46.9292 338.592-45.9276 341.067-44.8081 343.512-43.5708 345.957-42.3335 348.122-40.8311 350.008-39.0635 351.893-37.2959 353.41-35.1748 354.559-32.7002 355.708-30.2256 356.283-27.2796 356.283-23.8623Z" fill="#FF0000" transform="translate(82.2117 231)"/></g></g><text fill="#FF0000" font-family="Calibri,Calibri_MSFontService,sans-serif" font-weight="400" font-size="181" transform="translate(74.25 423)">Links</text></g></svg>